<svg width="1440" height="387" viewBox="0 0 1440 387" fill="none" xmlns="http://www.w3.org/2000/svg">
<rect width="1440" height="387" rx="50" fill="#121214"/>
<path fill-rule="evenodd" clip-rule="evenodd" d="M390.081 193.877C390.088 202.317 387.544 210.57 382.772 217.592C378.001 224.614 371.215 230.088 363.273 233.323C355.332 236.558 346.591 237.407 338.158 235.765C329.724 234.122 321.976 230.061 315.894 224.095C309.812 218.129 305.669 210.526 303.989 202.248C303.508 199.878 303.235 197.483 303.168 195.088C302.854 205.478 298.512 215.378 291.004 222.749C283.204 230.407 272.624 234.709 261.593 234.709H220V153.044H261.593C272.624 153.044 283.204 157.346 291.004 165.003C298.521 172.383 302.863 182.296 303.169 192.698C303.318 187.534 304.423 182.412 306.456 177.589C309.745 169.791 315.316 163.124 322.465 158.434C329.613 153.744 338.018 151.241 346.616 151.241C358.132 151.259 369.171 155.756 377.318 163.746C385.464 171.737 390.053 182.571 390.081 193.877ZM499.089 153.042L487.27 195.746L475.485 153.042H453.787L441.829 195.882L430.01 153.042H396.528L426.059 234.707H453.787L464.671 201.598L475.485 234.707H503.214L532.571 153.042H499.089ZM620.264 153.042V234.707H588.722V205.477H569.07V234.707H537.528V153.042H569.07V182.271H588.757V153.042H620.264ZM632.083 153.042V234.707H663.59V153.042H632.083ZM732.564 211.33V234.707H675.409V153.042H706.95V211.466L732.564 211.33ZM771.94 184.074V176.282L797.554 176.418V153.042H740.433V234.707H797.554V211.33H771.94V203.538H791.662V184.074H771.94Z" fill="url(#paint0_linear_61691:3331)"/>
<path d="M897.308 153.552L886.078 151.885C885.731 151.885 885.385 151.885 885.385 152.191L880.601 158.214C880.355 158.612 880.246 159.077 880.289 159.541C880.289 159.881 879.943 160.561 879.596 160.221L875.853 159.234C875.16 159.234 874.501 159.234 874.154 159.881L858.834 179.276C858.488 179.617 858.141 179.617 857.483 179.617L851.694 176.929C851.443 176.763 851.147 176.675 850.845 176.675C850.542 176.675 850.247 176.763 849.996 176.929L846.911 178.936C846.661 179.106 846.365 179.197 846.062 179.197C845.758 179.197 845.462 179.106 845.212 178.936L843.861 178.255C843.637 178.157 843.394 178.106 843.149 178.105C842.904 178.104 842.661 178.153 842.436 178.249C842.211 178.345 842.009 178.486 841.842 178.663C841.676 178.84 841.549 179.049 841.469 179.276L840.464 183.938C840.334 184.433 840.36 184.956 840.539 185.436C840.719 185.916 841.043 186.331 841.469 186.626L844.207 188.294L851.348 192.649L854.814 194.657C855.293 194.925 855.847 195.037 856.395 194.976C856.944 194.915 857.458 194.684 857.864 194.316L863.652 189.314C864.172 189.006 864.785 188.885 865.385 188.974L867.083 189.961C867.742 190.301 868.435 190.301 868.782 189.621L871.832 186.966C872.044 186.743 872.321 186.59 872.626 186.529C872.93 186.468 873.247 186.502 873.531 186.626L877.967 188.634C878.66 188.974 879.319 188.634 880.012 188.294L882.057 185.64L897.377 166.244C898.036 165.223 897.724 163.896 896.337 163.896L892.871 163.25C892.178 163.25 891.866 162.229 892.178 161.548L897.654 155.219C898.348 154.539 897.966 153.552 897.308 153.552Z" fill="white"/>
<path d="M846.356 192.649C846.009 192.309 845.663 192.649 845.663 192.989L847.361 197.31V198.331L846.01 204.014C845.987 204.193 846.007 204.375 846.067 204.546C846.127 204.717 846.226 204.873 846.356 205.001L850.411 208.029C850.611 208.178 850.854 208.259 851.105 208.259C851.355 208.259 851.599 208.178 851.798 208.029L856.2 204.354C856.337 204.225 856.501 204.128 856.681 204.069C856.861 204.011 857.052 203.991 857.24 204.014L861.988 203.333C862.335 203.333 862.335 202.993 861.988 202.653L846.356 192.649Z" fill="white"/>
<path d="M844.866 207.008C844.808 206.931 844.732 206.868 844.645 206.825C844.557 206.782 844.461 206.759 844.363 206.759C844.265 206.759 844.169 206.782 844.082 206.825C843.994 206.868 843.919 206.931 843.861 207.008L840.395 208.676C840.303 208.676 840.214 208.712 840.149 208.775C840.084 208.839 840.048 208.926 840.048 209.016L832.561 227.05H832.908L834.606 226.404V226.744L829.164 235.421C829.164 235.761 829.164 235.761 829.476 235.761L848.54 216.706C848.887 216.706 848.886 216.366 848.886 216.026L849.233 211.024C849.233 210.683 849.233 210.343 848.886 210.343L844.866 207.008Z" fill="white"/>
<path d="M993.561 211.331V234.708H916.752C916.752 234.708 953.285 195.304 958.103 186.049C961.916 178.767 957.86 174.378 954.151 174.378C950.443 174.378 946.284 176.453 946.284 186.049L916.995 184.109C916.995 165.871 930.027 151.035 954.151 151.035C977.409 151.035 991.585 163.081 991.585 180.23C991.585 190.915 982.227 203.096 971.898 211.365L993.561 211.331Z" fill="white"/>
<path d="M1080.21 193.876C1080.21 217.491 1064.3 236.717 1040.8 236.717C1017.3 236.717 1001.43 217.491 1001.43 193.876C1001.43 170.262 1017.3 151.07 1040.8 151.07C1064.3 151.07 1080.21 170.057 1080.21 193.876Z" fill="white"/>
<path d="M1164.89 211.331V234.708H1088.08C1088.08 234.708 1124.61 195.304 1129.43 186.049C1133.24 178.767 1129.19 174.378 1125.48 174.378C1121.77 174.378 1117.61 176.453 1117.61 186.049L1088.32 184.109C1088.32 165.871 1101.36 151.035 1125.48 151.035C1148.74 151.035 1162.91 163.081 1162.91 180.23C1162.91 190.915 1153.56 203.096 1143.23 211.365L1164.89 211.331Z" fill="white"/>
<path d="M1220 151V234.706H1188.49V180.263L1174.63 181.965V158.486L1220 151Z" fill="white"/>
<defs>
<linearGradient id="paint0_linear_61691:3331" x1="220" y1="153.265" x2="401.486" y2="466.246" gradientUnits="userSpaceOnUse">
<stop stop-color="#FF008E"/>
<stop offset="1" stop-color="#FFCD1E"/>
</linearGradient>
</defs>
</svg>
